<?xml version="1.0" encoding="utf-8"?>
<!-- Generator: Adobe Illustrator 27.9.6, SVG Export Plug-In . SVG Version: 9.03 Build 54986)  -->
<svg version="1.1" id="Layer_1" xmlns="http://www.w3.org/2000/svg" xmlns:xlink="http://www.w3.org/1999/xlink" x="0px" y="0px"
	 viewBox="0 0 89.4 122.9" style="enable-background:new 0 0 89.4 122.9;" xml:space="preserve">
<style type="text/css">
	.st0{fill-rule:evenodd;clip-rule:evenodd;fill:#2F2F2F;}
</style>
<path class="st0" d="M38.3,2c4.6-3.1,9.8-2.4,14.1,0.9c1.1,0.9,2.1,1.9,2.9,3.2c0.7,1.1,1.8,3.3-0.3,3.7c-0.8,0.1-2.3-1-3.5-1.4
	c-1.5-0.5-3-0.8-4.5-0.9c-2.8-0.3-5.5-0.1-7.9,0.6c-1.3,0.4-2.5,0.8-3.7,1.3c-0.5,0.3-1.7,1-2,0C32.8,7.2,36.6,3.1,38.3,2L38.3,2z
	 M3.5,79.6h6.5c3.3-5.1,10.3-7.8,16.6-10.1c1.3-0.5,2.5-0.9,3.6-1.4l0,0c1.1-0.9,2.2-2,3-3c0.6-0.7,1.2-1.3,1.4-1.7
	c-0.2-0.2-0.5-0.4-0.7-0.6c-1.6-1.5-3.1-3.3-4.4-5.4c-1.2-2-2.3-4.2-3.3-6.6c-0.4-0.1-0.9-0.3-1.3-0.5c-0.6-0.3-1.1-0.6-1.6-0.9
	c-1.4-1.1-2.3-2.5-2.8-4.1c-0.6-1.8-0.7-3.7-0.5-5.5c0.1-0.9,0.4-1.8,0.8-2.4c0.4-0.7,1-1.3,1.6-1.7c0.2-0.1,0.4-0.2,0.6-0.2
	c-0.4-2-0.3-3.9-0.2-6.2c0.2-5.9,1.7-10.6,6.3-14.6c7-6.1,20.8-6.7,28.5-1.4c1.1,0.8,2.2,1.7,3.2,2.8c3.1,3.6,5.9,11.4,5.8,16.3
	c0,1.1-0.2,2.3-0.6,3.4c0,0.1,0,0.2-0.1,0.4c0.8,0.5,1.5,1.2,2,1.9l0,0c0.7,1.1,1,2.4,1,3.7c-0.1,1.3-0.5,2.6-1.3,3.9
	c-0.9,1.5-2.3,3-4.2,4.3c-1.6,3.8-3.9,7.7-6.7,10.8c-0.9,1-1.8,1.9-2.8,2.7c0.8,0.9,2.3,2.1,3.7,3.3c0.2,0.2,0.5,0.4,0.8,0.7
	c1.3,0.6,2.7,1.2,4,1.7c5.9,2.4,11.9,4.9,15,10.5h8.3c2.1,0,3.8,2,3.5,4.4l-4.6,34.5c-0.3,2.4-2,4.4-4.4,4.4H8.9
	c-2.4,0-4.1-2-4.4-4.4L0,84C-0.3,81.6,1.4,79.6,3.5,79.6L3.5,79.6z M13.9,79.6H74c-2.9-3.8-7.8-5.8-12.6-7.8c-1-0.4-2-0.8-3-1.2
	c-0.8,1.1-1.8,2-2.9,2.8c-2.7,1.9-6.1,3-9.7,3.2c-3.5,0.2-7.2-0.6-10.3-2.4c-1.6-0.9-3-2.1-4.2-3.5c-1.2,0.5-2.4,0.9-3.7,1.4
	C22.7,74.2,17,76.3,13.9,79.6L13.9,79.6z M44.3,95.9c2.9,0,5.2,2.3,5.2,5.2c0,2.9-2.3,5.2-5.2,5.2s-5.2-2.3-5.2-5.2
	S41.4,95.9,44.3,95.9L44.3,95.9z M41.7,58c-0.5-0.3-0.6-0.9-0.3-1.4c0.3-0.5,0.9-0.6,1.4-0.3c0.8,0.5,1.5,0.7,2.3,0.8
	s1.5-0.2,2.2-0.5c0.5-0.3,1.1-0.1,1.4,0.4c0.3,0.5,0.1,1.1-0.4,1.4c-1.1,0.6-2.2,0.8-3.3,0.8C43.8,59,42.8,58.7,41.7,58L41.7,58z
	 M53.9,41c1.4,0,2.6,1.2,2.6,2.6c0,1.4-1.2,2.6-2.6,2.6s-2.6-1.2-2.6-2.6C51.3,42.1,52.5,41,53.9,41L53.9,41z M36,41
	c1.4,0,2.6,1.2,2.6,2.6c0,1.4-1.2,2.6-2.6,2.6c-1.4,0-2.6-1.2-2.6-2.6C33.4,42.1,34.6,41,36,41L36,41z M23.9,37.3L23.9,37.3
	c-0.4,0.3-0.7,0.6-1,1c-0.3,0.5-0.4,1-0.5,1.7c-0.2,1.5-0.1,3.1,0.4,4.6c0.4,1.2,1.1,2.3,2.1,3.1c0.4,0.3,0.8,0.5,1.2,0.7
	c0.4,0.2,0.9,0.4,1.4,0.5c0.4,0.1,0.6,0.3,0.7,0.6l0,0c1,2.5,2.1,4.8,3.4,6.8c1.2,1.9,2.6,3.6,4.1,4.9c1.6,1.4,3.1,2.4,4.7,3.1
	c2.8,1.2,5.5,1.1,8,0.2c2.6-1,5-2.8,7.1-5.2c2.7-3,4.9-6.7,6.5-10.4c0.1-0.2,0.3-0.4,0.5-0.5c1.7-1.1,3-2.4,3.8-3.8c0.6-1,0.9-2,1-3
	c0.1-0.9-0.2-1.7-0.6-2.4l0,0l0,0c-0.2-0.4-0.6-0.7-1-1c-0.8,1.8-2.1,4.2-3.9,6.6V33.9c-5-2.3-8.2-7.4-9.9-15
	c-2,14.5-19.8,13.9-24.3,16.5v8.5c-0.9-1.2-1.6-2.4-2.3-3.6C24.6,39.2,24.2,38.3,23.9,37.3L23.9,37.3z M36.5,64.6
	c-0.4,0.5-0.9,1.2-1.5,1.9c-0.5,0.6-1.1,1.2-1.8,1.8c1.1,1.5,2.4,2.6,3.9,3.5c2.6,1.5,5.7,2.1,8.7,2c3-0.2,5.8-1.1,8-2.7
	c1.1-0.8,2-1.7,2.6-2.8c-1.5-1.3-3.1-2.7-4-3.7c-1.1,0.7-2.3,1.3-3.5,1.8c-3,1.1-6.2,1.2-9.6-0.2C38.5,65.8,37.5,65.3,36.5,64.6
	L36.5,64.6z"/>
</svg>
