<?xml version="1.0" encoding="utf-8"?>
<!-- Generator: Adobe Illustrator 27.9.6, SVG Export Plug-In . SVG Version: 9.03 Build 54986)  -->
<svg version="1.1" id="Layer_1" xmlns="http://www.w3.org/2000/svg" xmlns:xlink="http://www.w3.org/1999/xlink" x="0px" y="0px"
	 viewBox="0 0 122.9 100.5" style="enable-background:new 0 0 122.9 100.5;" xml:space="preserve">
<style type="text/css">
	.st0{fill:#4682B4;stroke:#4682B4;stroke-miterlimit:10;}
</style>
<g>
	<path class="st0" d="M66,54.6h-9.1c-0.2,0-0.3,0.1-0.4,0.2c-0.1,0.1-0.2,0.2-0.2,0.4v19.1c0,0.2,0.1,0.3,0.2,0.4
		c0.1,0.1,0.2,0.2,0.4,0.2H66c0.2,0,0.3-0.1,0.4-0.2s0.2-0.2,0.2-0.4V55.1c0-0.2-0.1-0.3-0.2-0.4C66.2,54.6,66.1,54.6,66,54.6
		L66,54.6L66,54.6z M7,14h31.5V5c0-1.4,0.6-2.6,1.5-3.5C40.8,0.6,42.1,0,43.4,0h36.1c1.4,0,2.6,0.6,3.5,1.5s1.4,2.1,1.4,3.5v9h31.5
		c1.9,0,3.7,0.8,4.9,2.1c1.3,1.3,2.1,3,2.1,4.9v16.9c-7.9,5.4-16,10-24.4,13.8s-17.1,6.7-26.1,8.7v-6.7c0-1.5-0.6-3-1.6-4
		s-2.4-1.6-4-1.6H56.2l0,0c-1.5,0-3,0.6-4,1.6s-1.6,2.4-1.6,4v6.6c-8.8-2-17.2-4.9-25.5-8.6c-8.6-4-17-8.7-25.1-14.3V21
		c0-2,0.8-3.7,2.1-5C3.3,14.8,5.1,14,7,14L7,14L7,14z M122.9,47.8v45.8c0,1.9-0.8,3.7-2.1,4.9c-1.3,1.3-3,2.1-4.9,2.1H7
		c-1.9,0-3.7-0.8-4.9-2.1c-1.3-1.3-2.1-3-2.1-4.9V47.4c6.9,4.4,14,8.3,21.3,11.5c9.4,4.2,19.2,7.5,29.3,9.6v7.2c0,1.5,0.6,3,1.6,4
		s2.4,1.6,4,1.6h10.5c1.5,0,3-0.6,4-1.6s1.6-2.4,1.6-4v-7.6l0.1,0.5c10.3-2.2,20.2-5.4,29.8-9.7C109.3,55.8,116.2,52,122.9,47.8
		L122.9,47.8z M75.7,6.7H47.2c-0.2,0-0.3,0.1-0.4,0.2c-0.1,0.1-0.2,0.3-0.2,0.4v6.4h29.7V7.4c0-0.2-0.1-0.3-0.2-0.4
		C76,6.8,75.8,6.7,75.7,6.7L75.7,6.7L75.7,6.7z"/>
</g>
</svg>
